<svg viewBox="0 0 554.08 136.33" xmlns="http://www.w3.org/2000/svg"><path d="M203.48 29.262c-2.03 0-3.732.67-5.063 1.992-1.32 1.319-1.989 2.99-1.989 4.966 0 1.982.672 3.64 1.999 4.926 1.325 1.283 3.024 1.933 5.053 1.933 2.104 0 3.837-.65 5.152-1.934 1.326-1.293 1.998-2.95 1.998-4.925 0-1.968-.669-3.639-1.99-4.964-1.319-1.323-3.056-1.994-5.16-1.994" fill="#11100e"/><path d="M386.982 67.502V93.36c-1.777 3.164-3.772 5.568-5.93 7.149-2.158 1.583-4.892 2.384-8.124 2.384-4.374 0-7.712-1.828-10.21-5.59-2.491-3.744-3.754-9.124-3.754-15.988 0-6.73 1.387-12.04 4.124-15.785 2.712-3.719 6.338-5.604 10.777-5.604 5.281 0 9.693 2.548 13.117 7.575zm0-5.644c-3.55-4.158-8.147-6.263-13.68-6.263-4.009 0-7.526 1.113-10.453 3.31-2.918 2.189-5.185 5.274-6.737 9.171-1.544 3.883-2.328 8.432-2.328 13.522 0 7.875 1.683 14.19 4.999 18.77 3.345 4.613 7.914 6.951 13.58 6.951 3.614 0 6.728-.822 9.255-2.445a18.409 18.409 0 005.52-5.548l.423 6.965h4.41V36.544l-4.989-.648v25.962m12.76 44.429h4.994V56.528h-4.994v49.76m2.493-70.626c-1.099 0-2.001.351-2.679 1.04-.688.686-1.037 1.556-1.037 2.586 0 1.032.35 1.902 1.036 2.585.685.69 1.587 1.04 2.68 1.04 1.084 0 1.985-.35 2.679-1.039.689-.69 1.04-1.558 1.04-2.586 0-1.026-.351-1.896-1.04-2.586-.687-.689-1.588-1.04-2.68-1.04m35.12 27.453c2.13 2.248 3.208 5.4 3.208 9.369 0 3.96-1.107 7.043-3.29 9.16-2.175 2.122-5.355 3.197-9.452 3.197-3.906 0-7.055-1.107-9.356-3.292-2.304-2.177-3.472-5.293-3.472-9.257 0-3.841 1.092-6.928 3.244-9.176 2.15-2.24 5.408-3.377 9.68-3.377 4.143 0 7.318 1.136 9.438 3.376zm11.505-10.317a36.9 36.9 0 01-7.88 2.237c-2.609.432-7.02.613-13.16.563-5.383 0-9.764 1.548-13.02 4.602-3.248 3.066-4.895 7.132-4.895 12.092 0 3.363.679 6.235 2.017 8.539 1.27 2.165 3.232 3.983 5.843 5.406-3.347 2.259-5.043 4.999-5.043 8.15 0 2.544 1.09 4.674 3.238 6.334 2.12 1.633 5.162 2.46 9.04 2.46h7.992c3.544 0 6.342.74 8.319 2.2 1.939 1.436 2.921 3.463 2.921 6.03 0 6.333-5.361 9.544-15.937 9.544-4.025 0-7.204-.33-9.452-.977-2.202-.634-3.803-1.651-4.758-3.024-.96-1.374-1.479-3.304-1.541-5.742l-.01-.324h-4.79v.334c0 4.988 1.645 8.638 4.89 10.854 3.21 2.193 8.48 3.305 15.661 3.305 6.928 0 12.21-1.237 15.701-3.68 3.532-2.474 5.323-6.031 5.323-10.574 0-3.722-1.438-6.768-4.268-9.053-2.807-2.263-6.641-3.41-11.397-3.41h-8.088c-5.343 0-7.94-1.675-7.94-5.12 0-1.128.344-2.204 1.021-3.2.66-.975 1.606-1.802 2.811-2.456 1.925.666 4.097 1.005 6.46 1.005 5.385 0 9.733-1.503 12.92-4.465 3.193-2.967 4.811-6.955 4.811-11.855 0-6.147-2.451-10.654-7.293-13.415 5.416-.112 9.495-.586 12.133-1.406l.324-.098-1.622-4.992-.33.136m5.52 53.489h4.997V56.528h-4.997v49.76m2.494-70.626c-1.095 0-1.995.351-2.675 1.04-.69.69-1.041 1.56-1.041 2.586 0 1.028.35 1.897 1.04 2.586.686.688 1.588 1.039 2.676 1.039 1.086 0 1.989-.35 2.682-1.038.69-.685 1.039-1.555 1.039-2.587 0-1.03-.348-1.9-1.038-2.586-.688-.69-1.591-1.04-2.683-1.04m34.559 64.918c-2.57 1.47-5.174 2.215-7.739 2.215-4.901 0-7.284-2.844-7.284-8.695V60.866h12.367l.661-4.338H476.41V44.08l-4.989.538v11.911h-8.182v4.338h8.182V94.38c0 4.217 1.059 7.46 3.147 9.637 2.089 2.188 5.002 3.297 8.66 3.297 3.683 0 7.16-1.03 10.333-3.06l.268-.172-2.108-3.668-.288.166m17.546 2.414c-3.341 0-5.983-.947-7.848-2.819-1.87-1.868-2.818-4.54-2.818-7.946 0-3.943 1.345-6.936 4.002-8.899 2.688-1.984 6.61-2.99 11.65-2.99h9.07v13.596c-3.18 6.01-7.91 9.058-14.056 9.058zm19.997-1.9c-.628-1.135-.946-3.073-.946-5.763V71.163c0-5.072-1.314-8.98-3.906-11.612-2.592-2.621-6.675-3.95-12.133-3.95-4.532 0-9.604 1.082-15.073 3.218l-.301.117 1.446 4.108.32-.126c4.897-1.92 9.348-2.892 13.23-2.892 4.091 0 7.046.914 8.787 2.721 1.75 1.804 2.636 4.732 2.636 8.7v4.838h-9.73c-6.19 0-11.16 1.399-14.774 4.155-3.643 2.778-5.49 6.778-5.49 11.888 0 4.52 1.39 8.19 4.137 10.907 2.747 2.714 6.528 4.09 11.24 4.09 6.554 0 11.697-2.7 15.297-8.03.32 2.179.985 3.888 1.982 5.092 1.138 1.363 2.824 2.347 5.014 2.927l.304.08 1.233-3.7-.296-.115c-1.363-.532-2.364-1.368-2.977-2.485m18.642.953l-.31.115c-1.149.42-2.28.633-3.363.633-2.62 0-3.896-1.553-3.896-4.748V35.892l-4.997.648v61.697c0 2.962.76 5.24 2.26 6.772 1.5 1.53 3.574 2.306 6.165 2.306 1.728 0 3.516-.42 5.313-1.25l.281-.13-1.453-3.888" fill="#7a7a7b"/><path d="M146.108 99.46c-8.408 0-12.496-6.167-12.496-18.856 0-12.75 4.119-18.95 12.59-18.95 8.342 0 12.398 6.169 12.398 18.858 0 12.75-4.087 18.949-12.492 18.949zm.093-46.634c-4.957 0-9.28 1.177-12.851 3.501-3.575 2.332-6.338 5.639-8.21 9.827-1.862 4.158-2.807 9.02-2.807 14.45 0 8.43 2.1 15.215 6.247 20.17 4.187 4.988 10.084 7.514 17.528 7.514 4.893 0 9.184-1.178 12.75-3.503 3.568-2.323 6.33-5.627 8.21-9.82 1.863-4.167 2.807-9.03 2.807-14.453 0-8.43-2.084-15.217-6.193-20.169-4.145-4.988-10.026-7.517-17.48-7.517m44.305 45.901c-.879.355-1.897.535-3.025.535-.918 0-1.524-.217-1.856-.659-.263-.352-.578-1.098-.578-2.646v-63.86l-10.583 1.268v62.782c0 3.784 1.045 6.786 3.106 8.918 2.065 2.14 4.908 3.223 8.448 3.223 2.72 0 5.25-.625 7.516-1.857l.61-.333-2.878-7.676-.76.305m7.773 8.387h10.594V53.99H198.28v53.124m51.959-53.119L237.434 95.59l-12.899-41.595h-11.49l18.345 53.124h11.993l18.046-53.124h-11.19m28.546 45.945c-2.692 0-4.735-.705-6.07-2.097-1.345-1.404-2.029-3.553-2.029-6.387 0-6.568 4.41-9.76 13.476-9.76h5.946v10.82c-2.796 4.995-6.502 7.425-11.323 7.425zm22.843-1.467c-.615-.864-.925-2.27-.925-4.187V70.73c0-5.67-1.595-10.12-4.736-13.222-3.133-3.107-7.895-4.682-14.15-4.682-5.558 0-11.636 1.2-18.067 3.57l-.734.27 2.756 8.04.753-.251c10.397-3.463 17.889-3.502 21.21-.554 1.575 1.396 2.373 3.827 2.373 7.224v3.01h-7.118c-7.375 0-13.176 1.533-17.245 4.558-4.137 3.078-6.233 7.54-6.233 13.256 0 4.83 1.561 8.806 4.641 11.811 3.07 3.004 7.301 4.528 12.58 4.528 6.464 0 11.54-2.3 15.117-6.844.822 1.928 1.956 3.42 3.378 4.446 1.743 1.25 4.037 2.054 6.823 2.393l.652.08 2.501-7.613-.727-.266c-1.266-.462-2.225-1.141-2.849-2.01m42.728-17.4c-2.913-2.543-7.349-4.575-13.171-6.034-4.055-1.076-6.877-2.183-8.387-3.285-1.39-1.03-2.066-2.419-2.066-4.25s.72-3.234 2.208-4.286c1.544-1.105 3.72-1.665 6.471-1.665 2.248 0 4.416.349 6.443 1.037 2.05.696 4.245 1.787 6.522 3.24l.66.421 4.667-6.942-.597-.458c-2.604-2-5.376-3.52-8.239-4.52-2.878-1.002-6.158-1.51-9.748-1.51-3.609 0-6.92.63-9.843 1.872-2.948 1.25-5.296 3.05-6.982 5.348-1.69 2.31-2.546 4.918-2.546 7.751 0 3.922 1.31 7.206 3.897 9.762 2.537 2.496 6.656 4.506 12.237 5.97 3.35.905 5.905 1.761 7.592 2.539 1.625.761 2.765 1.621 3.387 2.553.626.947.944 2.23.944 3.812 0 2.157-.867 3.813-2.65 5.065-1.838 1.303-4.396 1.963-7.598 1.963-5.068 0-9.775-1.624-13.984-4.827l-.593-.452-5.812 6.636.603.527c5.274 4.608 11.995 6.943 19.98 6.943 5.811 0 10.813-1.394 14.87-4.145 4.157-2.818 6.263-6.954 6.263-12.294 0-4.521-1.522-8.144-4.528-10.77" fill="#11100e"/><path d="M26.551 49.382c7.654-24.193 19.674-33.753 36.044-28.674l4.219-13.332c-8.834-2.765-17.056-3.092-24.69-.973-7.676 2.137-14.398 6.421-20.134 12.87-5.745 6.446-10.175 14.599-13.296 24.458-4.832 15.27-4.926 28.532-.29 39.793 4.646 11.249 13.636 18.985 26.976 23.205l4.221-13.333c-16.351-5.175-20.695-19.85-13.05-44.014m57.945 37.652c-7.69 24.182-19.72 33.726-36.086 28.625l-4.237 13.322c8.827 2.779 17.05 3.119 24.689 1.01 7.678-2.126 14.408-6.402 20.151-12.841 5.756-6.438 10.199-14.585 13.33-24.442 4.855-15.263 4.966-28.525.345-39.793-4.625-11.252-13.607-19-26.94-23.24L71.51 43.002c16.342 5.199 20.665 19.877 12.986 44.031" fill="#bdba1a"/><path d="M66.817 7.383l8.93 22.3-31.583 99.337-8.781-22.285L66.817 7.383" fill="#6b6921"/></svg>